<svg height="504pt" viewBox="0 -21 504.84494 504" width="504pt" xmlns="http://www.w3.org/2000/svg"><g fill-rule="evenodd"><path d="m295.335938 311.273438c-1.441407-.019532-2.773438-.78125-3.523438-2.011719-.597656-.921875-.796875-2.046875-.5625-3.117188.238281-1.070312.894531-2.003906 1.820312-2.589843l30.132813-19.472657-44.316406 25.597657c-1.949219 1.152343-4.460938.515624-5.625-1.425782-1.207031-1.910156-.6875-4.429687 1.175781-5.707031l83.933594-56.320313-79.90625 46.164063c-1.96875 1.226563-4.5625.625-5.789063-1.34375-1.230469-1.96875-.628906-4.5625 1.34375-5.792969l83.007813-55.816406-78.5625 45.328125c-1.949219.976563-4.320313.296875-5.457032-1.5625-1.140624-1.859375-.664062-4.28125 1.09375-5.574219l41.96875-27.027344-37.269531 21.488282c-1.945312 1.152344-4.460937.515625-5.621093-1.425782-1.210938-1.910156-.691407-4.433593 1.175781-5.707031l53.128906-35.171875-48.597656 28.539063c-1.921875.917969-4.226563.253906-5.363281-1.546875-1.132813-1.800782-.742188-4.164063.914062-5.503906l62.613281-43.308594-58.164062 33.574218c-1.925781 1.167969-4.433594.566407-5.625-1.34375-1.207031-1.910156-.6875-4.433593 1.175781-5.707031l61.105469-41.96875-56.65625 32.734375c-1.972657 1.230469-4.5625.628906-5.792969-1.34375-1.226562-1.96875-.625-4.5625 1.34375-5.789062l33.574219-22.410156-28.957031 16.785156c-1.980469 1.113281-4.484376.488281-5.707032-1.425782-1.175781-1.953124-.582031-4.484374 1.339844-5.707031l11.332031-7.554687-6.964843 4.027344c-1.921876.921874-4.226563.253906-5.363282-1.546876-1.132812-1.800781-.742187-4.164062.914063-5.503906l31.980469-22.074218-27.53125 15.863281c-1.914063 1.136719-4.378907.585937-5.625-1.257813-1.199219-1.875-.761719-4.355468 1.007812-5.707031l38.441406-29.292969-33.574218 19.554688c-1.898438 1.042968-4.277344.503906-5.539063-1.257813-1.269531-1.796875-.898437-4.277343.839844-5.625l22.996093-18.632812-18.296874 10.578125c-1.835938 1.242187-4.320313.84375-5.675782-.910156-1.355468-1.753907-1.109375-4.261719.558594-5.722657l15.105469-15.359375-10.40625 5.875c-1.367188.929688-3.164063.929688-4.53125 0-1.347657-.9375-2.007813-2.589844-1.679688-4.195312l2.769531-14.019532c-1.53125-.542968-2.613281-1.921874-2.773437-3.535156-.160156-1.617187.625-3.183594 2.015625-4.019531l4.199219-2.433594c1.425781-.820312 3.199219-.730469 4.535156.226563 1.339844.957031 1.992187 2.609375 1.675781 4.222656l-2.433594 12.085938 28.789063-16.785157c1.804687-.933593 4.015625-.441406 5.253906 1.167969s1.144531 3.875-.21875 5.378906l-14.773437 15.277344 38.023437-21.910156c1.914063-1.136719 4.378907-.582032 5.625 1.261718 1.183594 1.816407.824219 4.230469-.839843 5.621094l-23.082032 18.632813 44.234375-25.179688c1.910157-1.136719 4.378907-.582031 5.621094 1.261719 1.199219 1.875.761719 4.355469-1.007813 5.707031l-38.441406 29.292969 61.691406-35.589844c1.953126-1.175781 4.488282-.578125 5.710938 1.34375 1.207031 1.910156.6875 4.429688-1.175781 5.707032l-31.980469 21.992187 40.457031-23.335937c1.953125-1.105469 4.433594-.476563 5.625 1.429687.59375.921875.796875 2.042969.558594 3.113281-.234375 1.074219-.890625 2.007813-1.820313 2.59375l-11.414062 7.554688 14.015625-8.394532c1.980469-1.113281 4.488281-.488281 5.707031 1.425782 1.195313 1.929687.636719 4.457031-1.257812 5.707031l-33.574219 22.328125 37.101563-21.320312c1.925781-1.167969 4.429687-.570313 5.621093 1.34375 1.210938 1.910156.691407 4.429687-1.175781 5.707031l-61.269531 42.304687 67.148437-38.777344c1.96875-1.230468 4.5625-.628906 5.789063 1.339844 1.230469 1.972656.628906 4.5625-1.34375 5.792969l-62.613281 42.554687 68.40625-39.449218c.929687-.578125 2.054687-.75 3.113281-.480469 1.0625.269531 1.96875.957031 2.511719 1.90625 1.191406 1.929687.632812 4.457031-1.261719 5.707031l-53.128907 35.171875 57.746094-33.574219c1.949219-.980468 4.324219-.300781 5.460938 1.558594 1.136718 1.863282.660156 4.285156-1.097656 5.574219l-41.964844 27.027344 45.324218-26.1875c1.953126-1.105469 4.433594-.476563 5.625 1.425781 1.207032 1.910156.6875 4.433594-1.175781 5.707031l-83.011719 55.902344 85.695313-49.523437c1.277344-.792969 2.878906-.847657 4.203125-.140626 1.324219.707032 2.171875 2.066407 2.222656 3.566407.050782 1.5-.703125 2.914062-1.976562 3.710937l-84.019532 56.402344 80.914063-46.75c1.949219-.976562 4.324219-.300781 5.460937 1.5625 1.136719 1.859375.660157 4.28125-1.097656 5.570312l-30.128906 19.472657 25.851562-14.9375c1.953126-1.105469 4.429688-.476563 5.621094 1.425781 1.164063 1.914062.652344 4.40625-1.175781 5.707031l-67.902344 48.09375 63.457031-36.679687c1.953126-1.105469 4.429688-.476563 5.621094 1.425781 1.21875 1.863281.734375 4.355469-1.089844 5.625l-44.738281 32.0625 40.207031-23.164063c1.910157-1.136718 4.378907-.585937 5.621094 1.257813 1.1875 1.816406.824219 4.234375-.839844 5.625l-38.691406 30.71875 33.992188-19.640625c1.875-1.109375 4.285156-.601562 5.550781 1.167969 1.269531 1.769531.972656 4.214843-.683594 5.628906l-21.988281 19.054687 16.785156-9.902343c1.875-1.101563 4.277344-.59375 5.539063 1.171875 1.265625 1.765625.976562 4.207031-.671875 5.625l-4.867188 4.28125c1.730469-.996094 3.921875-.605469 5.203125.921875 1.320313 1.515625 1.320313 3.773437 0 5.289062l-3.691406 4.867188c1.632813-.128907 3.199219.6875 4.027344 2.097656.574219.953125.738281 2.097656.453125 3.175781-.285156 1.074219-.992188 1.988282-1.960938 2.535156l-15.949218 9.230469c-1.761719.972657-3.960938.589844-5.289063-.921875-1.21875-1.554687-1.21875-3.738281 0-5.289062l3.191406-4.113282-17.039062 10.324219c-1.871094 1.101563-4.277344.589844-5.539063-1.175781-1.226562-1.773438-.9375-4.183594.671875-5.621094l4.867188-4.28125-19.304688 11.078125c-1.847656 1.089844-4.222656.578125-5.457031-1.175781-1.265625-1.765625-.972656-4.203125.671875-5.621094l21.992187-19.054687-44.90625 25.9375c-1.921874 1.296875-4.535156.789062-5.832031-1.132813-1.300781-1.925781-.792969-4.539062 1.132813-5.835937l38.691406-30.71875-65.300781 37.6875c-1.9375 1.105469-4.402344.5-5.609375-1.378907-1.207032-1.875-.730469-4.367187 1.078125-5.671874l44.738281-32.0625-67.820312 39.113281c-1.925782 1.167969-4.433594.566406-5.625-1.34375-1.136719-1.902344-.667969-4.359375 1.09375-5.707031l67.984374-48.09375-95.683593 55.226562c-.746094.488281-1.636719.695312-2.519531.585938zm0 0" fill="#e4e8eb"/><path d="m297.769531 310.855469c-.910156.019531-1.800781-.277344-2.515625-.839844-1.363281-1-1.992187-2.71875-1.59375-4.363281l1.507813-5.960938-16.785157 9.90625c-1.800781 1-4.058593.574219-5.371093-1.007812-1.296875-1.554688-1.296875-3.816406 0-5.371094l8.980469-10.15625-27.277344 15.777344c-1.894532 1.085937-4.304688.539062-5.542969-1.257813-1.222656-1.777343-.9375-4.1875.671875-5.625l12.003906-9.988281-27.949218 16.117188c-1.90625 1.183593-4.40625.625-5.625-1.257813-1.242188-1.867187-.800782-4.378906 1.007812-5.707031l11.582031-8.394532-25.933593 15.023438c-1.957032 1.105469-4.433594.476562-5.625-1.425781-.605469-.890625-.832032-1.984375-.628907-3.039063.207031-1.058594.824219-1.988281 1.71875-2.585937l12.003907-8.394531-26.019532 14.773437c-1.953125 1.105469-4.433594.476563-5.625-1.425781-1.269531-1.878906-.785156-4.433594 1.09375-5.707032l22.578125-15.613281-38.109375 21.90625c-1.96875 1.253907-4.578125.671875-5.832031-1.300781-1.25-1.96875-.667969-4.582031 1.300781-5.832031l49.019532-33.992188-70.171876 40.203125c-1.949218.976563-4.320312.296875-5.460937-1.5625-1.136719-1.859375-.660156-4.28125 1.097656-5.574218l25.179688-16.785157-40.203125 23.167969c-.941406.570312-2.074219.730469-3.136719.445312-1.058594-.285156-1.960937-.992187-2.488281-1.957031-1.175782-1.953125-.578125-4.484375 1.34375-5.707031l6.714844-4.199219-18.886719 10.828125c-1.949219.976563-4.320313.300782-5.460938-1.5625-1.136719-1.859375-.660156-4.28125 1.097657-5.570312l15.277343-9.652344-27.953125 16.367188c-.941406.578124-2.078125.753906-3.152344.488281-1.074218-.269531-1.996093-.960938-2.554687-1.917969-1.175781-1.949219-.578125-4.484375 1.34375-5.707031l79.402344-51.953125-100.722657 58.25c-1.929687.835937-4.179687.109375-5.261718-1.695313-1.082032-1.800781-.664063-4.128906.984375-5.441406l34.328125-21.570313-48.765625 28.117188c-.953125.574219-2.097657.738281-3.175781.453125-1.074219-.285156-1.988282-.992187-2.53125-1.960937-1.175782-1.953126-.582032-4.488282 1.339843-5.710938l53.382813-33.570312-64.292969 37.347656c-.953125.574218-2.097656.738281-3.171875.453125-1.078125-.285157-1.992188-.992188-2.535156-1.960938-1.175782-1.953125-.582032-4.488281 1.34375-5.707031l53.046875-32.988281-58.167969 33.574219c-.976562.527343-2.125.636718-3.183594.304687s-1.9375-1.078125-2.441406-2.066406c-1.144531-1.9375-.59375-4.433594 1.261719-5.707031l135.300781-87.292969-139.414062 80.492187c-.941407.570313-2.074219.730469-3.136719.445313-1.0625-.285157-1.960938-.992188-2.488281-1.957031-1.175782-1.949219-.578126-4.484376 1.34375-5.707032l102.902343-64.878906-100.050781 57.746094c-.953125.574218-2.097656.734375-3.171875.453125-1.074219-.285157-1.988281-.996094-2.535156-1.964844-1.175781-1.953125-.578125-4.484375 1.34375-5.707031l106.175781-67.148438-101.8125 59.257813c-1.992188 1.207031-4.585938.566406-5.789062-1.425781-1.207032-1.992188-.566407-4.585938 1.425781-5.792969l125.902343-80.324219-121.539062 69.832031c-1.972656 1.160157-4.511719.527344-5.707031-1.425781-.671875-.964844-.914063-2.167969-.65625-3.316406.253906-1.148438.980469-2.140625 2-2.726563l123.972656-79.066406-119.609375 69.414063c-1.949219.976562-4.320312.296874-5.457031-1.5625-1.140625-1.859376-.664063-4.28125 1.09375-5.574219l140.589843-90.816407-136.226562 78.648438c-1.972656 1.160156-4.511719.523438-5.707031-1.425781-.582031-.957031-.761719-2.105469-.492188-3.195313.265625-1.085937.957031-2.023437 1.921875-2.597656l69.664063-43.476562-65.386719 37.683593c-1.976562 1.117188-4.484375.488281-5.707031-1.425781-1.175781-1.953125-.578125-4.484375 1.34375-5.707031l120.195312-77.554688-115.832031 67.144531c-1.976562 1.117188-4.484375.488282-5.707031-1.425781-.734375-.972656-1.007813-2.21875-.75-3.414062.257812-1.191407 1.023437-2.210938 2.09375-2.796875l112.808593-73.777344-108.445312 62.613281c-1.949219.980469-4.320312.300781-5.457031-1.558593-1.140625-1.863282-.664063-4.285157 1.09375-5.574219l73.945312-48.011719-69.582031 40.207031c-2.0625 1.203125-4.710938.507813-5.914062-1.554687-1.207032-2.0625-.511719-4.710938 1.550781-5.917969l55.398437-36.089844-51.035156 29.796875c-1.96875 1.25-4.578125.667969-5.832031-1.300781-1.25-1.972656-.667969-4.582031 1.300781-5.835937l72.183594-50.359376-67.652344 39.28125c-1.925781 1.167969-4.429688.570313-5.621094-1.34375-1.273437-1.878906-.785156-4.429687 1.089844-5.707031l47.589844-33.574219-43.058594 25.179688c-1.945312 1.277344-4.558594.730469-5.832031-1.214844-1.273438-1.949218-.730469-4.558594 1.21875-5.835937l38.019531-27.695313-33.570312 19.304688c-1.941407 1.105468-4.40625.5-5.613282-1.378906-1.203125-1.875-.730468-4.367188 1.078125-5.671876l11.835938-8.394531-7.300781 4.195313c-1.875 1.101562-4.277344.59375-5.542969-1.171875-1.253907-1.742188-.960938-4.152344.671875-5.542969l21.824218-18.96875-16.367187 9.234375c-1.792969 1.042969-4.078125.617187-5.378906-.996094-1.300781-1.617187-1.226563-3.9375.175781-5.46875l10.324219-11.160156c-1.402344-.097656-2.660157-.882813-3.359375-2.101563-.574219-.953124-.734375-2.097656-.453125-3.171874.285156-1.074219.996093-1.988282 1.964843-2.535157l19.136719-11.414062c1.800781-1 4.054688-.578125 5.371094 1.007812 1.378906 1.554688 1.378906 3.898438 0 5.457031l-8.394531 9.652344 29.546875-16.789062c1.871093-1.101563 4.273437-.589844 5.539062 1.175781 1.1875 1.785156.902344 4.167969-.671875 5.625l-21.90625 18.714844 44.738282-25.765625c1.925781-1.167969 4.433593-.570313 5.621093 1.339844 1.226563 1.890624.746094 4.40625-1.089843 5.710937l-11.835938 8.390625 26.945312-15.441406c1.933594-1.121094 4.40625-.53125 5.621094 1.339844 1.21875 1.863281.734375 4.355468-1.089844 5.625l-37.9375 27.78125 60.265626-34.746094c1.933593-1.121094 4.402343-.53125 5.621093 1.339844 1.210938 1.910156.691407 4.433593-1.175781 5.710937l-47.503906 33.570313 69.75-40.285157c1.929687-1.121093 4.402344-.53125 5.621094 1.339844 1.210937 1.910156.691406 4.433594-1.175782 5.710937l-72.097656 50.359376 99.042969-57.746094c1.972656-1.160156 4.511719-.527344 5.707031 1.425781 1.144531 1.9375.597656 4.433594-1.257812 5.707031l-55.480469 36.09375 74.953125-43.226562c1.949218-.976563 4.320312-.300782 5.460937 1.558594 1.136719 1.863281.660157 4.285156-1.097656 5.574218l-73.945313 48.011719 95.515626-55.144531c1.949218-.976563 4.324218-.300782 5.460937 1.558594 1.136719 1.863281.664063 4.285156-1.09375 5.574218l-112.808594 74.03125 136.308594-78.730468c1.992187-1.207032 4.585937-.566407 5.792969 1.425781 1.203125 1.992187.566406 4.585937-1.429688 5.792969l-120.191406 77.636718 129.507812-74.953125c2.003907-1.097656 4.515626-.433593 5.710938 1.511719 1.160156 1.972656.523438 4.511719-1.429688 5.707031l-69.832031 43.5625 71.09375-41.042969c1.949219-.976562 4.320313-.300781 5.457031 1.5625 1.140626 1.859376.664063 4.28125-1.09375 5.570313l-140.589843 90.816406 138.324219-79.820312c1.949218-.976563 4.320312-.296875 5.460937 1.5625 1.136719 1.859375.660156 4.28125-1.097656 5.570312l-123.972657 79.066407 119.609376-69.078126c1.949218-.976562 4.320312-.296874 5.460937 1.5625 1.136719 1.859376.660156 4.28125-1.097656 5.574219l-125.902344 80.324219 121.453125-70.167969c2-1.101562 4.511719-.433593 5.707031 1.511719 1.175781 1.949219.582031 4.484375-1.339843 5.707031l-106.09375 67.144531 101.8125-58.753906c.945312-.546875 2.070312-.691406 3.125-.410156 1.054687.285156 1.953124.976562 2.496093 1.921875 1.175781 1.953125.582031 4.484375-1.339843 5.707031l-102.652344 64.796875 98.621094-56.988281c2-1.101562 4.511718-.433594 5.707031 1.507812 1.175781 1.953126.582031 4.488282-1.339844 5.710938l-135.386719 87.457031 130.851563-75.539062c1.992187-1.207031 4.585937-.566407 5.792969 1.425781 1.203124 1.992188.566406 4.585938-1.425782 5.792969l-53.046875 33.070312 48.679688-28.203125c2-1.097656 4.511719-.433594 5.707031 1.511719 1.175781 1.949219.582031 4.484375-1.339844 5.707031l-53.46875 33.574219 49.101563-28.371094c1.992187-1.207031 4.585937-.566406 5.792969 1.425781 1.203124 1.996094.566406 4.585938-1.425782 5.792969l-34.164062 21.402344 29.796875-17.289063c1.957031-.859374 4.246093-.144531 5.367187 1.671876 1.117188 1.820312.726563 4.183593-.917968 5.546874l-79.484376 51.953126 75.539063-43.394532c.945313-.546875 2.070313-.691406 3.125-.410156 1.054687.285156 1.953125.976562 2.5 1.921875 1.175781 1.953125.578125 4.484375-1.34375 5.707031l-15.191406 9.652344 10.910156-6.292969c1.972656-1.160156 4.511719-.527343 5.707031 1.425781 1.175782 1.953126.582032 4.484376-1.34375 5.707032l-6.964844 4.449218 2.601563-1.511718c1.949219-.976563 4.324219-.296875 5.460937 1.5625 1.136719 1.859375.660157 4.28125-1.097656 5.574218l-25.179687 16.785157 21.070312-12.171875c1.953125-1.105469 4.429688-.476563 5.621094 1.429687.609375.886719.832031 1.980469.628906 3.039063-.203125 1.054687-.824219 1.984375-1.71875 2.582031l-49.019531 34.414063 44.488281-25.765626c1.976563-1.117187 4.484375-.488281 5.707031 1.425782 1.207032 1.90625.6875 4.429687-1.175781 5.707031l-23.25 15.527344 18.046875-10.492188c1.96875-1.25 4.582032-.667969 5.832032 1.300781 1.25 1.972657.667968 4.582032-1.300782 5.835938l-11.917968 8.390625 7.46875-4.363281c1.9375-1.105469 4.402343-.5 5.609374 1.375 1.207032 1.878906.734376 4.371094-1.078124 5.675781l-11.582032 8.394531 7.050782-4.113281c1.898437-1.179687 4.386718-.664063 5.660156 1.167969 1.273437 1.835937.890625 4.34375-.875 5.714844l-12.003906 9.988281 7.21875-4.113281c1.742187-1.082032 4.015624-.6875 5.289062.921874 1.34375 1.570313 1.34375 3.886719 0 5.457032l-8.898438 10.15625 3.695313-2.183594c1.398437-.921875 3.214844-.921875 4.613281 0 1.351563 1.007812 1.949219 2.738281 1.511719 4.363281l-2.097656 8.394531c.710937.347657 1.296875.90625 1.679687 1.59375 1.152344 2.023438.480469 4.59375-1.511718 5.792969l-3.945313 2.265625c-.628906.515625-1.378906.863282-2.183594 1.007813zm0 0" fill="#fab153"/><path d="m471.011719 403.433594c-1.195313.011718-2.332031-.511719-3.105469-1.425782-1.296875-1.554687-1.296875-3.816406 0-5.371093l10.074219-13.175781-31.644531 18.296874c-1.863282.957032-4.148438.394532-5.351563-1.316406-1.207031-1.714844-.964844-4.054687.566406-5.484375l16.789063-14.4375-18.46875 10.492188c-1.871094 1.101562-4.273438.59375-5.539063-1.171875-1.265625-1.769532-.972656-4.207032.671875-5.625l25.179688-22.160156-36.59375 21.070312c-1.925782 1.167969-4.433594.566406-5.625-1.34375-1.179688-1.898438-.707032-4.382812 1.089844-5.707031l2.773437-1.933594-10.996094 6.296875c-1.910156 1.113281-4.355469.519531-5.539062-1.34375-1.261719-1.84375-.855469-4.355469.921875-5.707031l29.796875-21.824219-47.003907 26.945312c-1.9375 1.078126-4.378906.492188-5.625-1.34375-1.199218-1.875-.757812-4.355468 1.007813-5.707031l41.96875-31.054687-73.945313 42.636718c-.953124.574219-2.097656.738282-3.175781.453126-1.074219-.285157-1.988281-.992188-2.53125-1.964844-1.15625-2.019532-.484375-4.589844 1.507813-5.789063l138.15625-79.824219c1.9375-1.105468 4.402344-.5 5.609375 1.378907 1.207031 1.875.734375 4.367187-1.074219 5.671875l-41.96875 31.140625 43.226562-25.179688c1.9375-1.078125 4.378907-.496093 5.621094 1.34375 1.191406 1.847657.75 4.300781-1.003906 5.621094l-29.210938 21.90625 24.84375-13.929687c1.925782-1.167969 4.433594-.570313 5.625 1.339843 1.226563 1.890625.742188 4.40625-1.089843 5.710938l-3.609375 2.601562c1.863281-.507812 3.835937.328125 4.769531 2.019531.9375 1.691407.59375 3.800782-.824219 5.113282l-25.183594 22.242187 20.3125-11.75c1.875-1.101562 4.277344-.589843 5.539063 1.175781 1.226563 1.773438.941406 4.183594-.667969 5.621094l-16.789062 14.4375 11.917968-6.546875c1.730469-1.0625 3.976563-.707031 5.289063.839844 1.203125 1.589844 1.203125 3.785156 0 5.371094l-10.324219 13.09375 4.867188-2.769531c1.296875-.941407 3.015625-1.0625 4.433594-.316407 1.414062.75 2.28125 2.238281 2.230468 3.839844-.050781 1.601563-1.007812 3.035156-2.464844 3.695313l-23.503906 13.597656c-.609375.25-1.273437.339844-1.929687.25zm0 0" fill="#cad0d7"/><path d="m178.835938 403.519531c-1.839844.015625-3.472657-1.171875-4.03125-2.921875-.558594-1.753906.089843-3.664062 1.597656-4.714844l69.664062-49.605468-75.539062 43.8125c-1.980469 1.113281-4.484375.488281-5.707032-1.425782-.714843-.914062-1.019531-2.078124-.84375-3.222656.171876-1.144531.8125-2.164062 1.765626-2.820312l10.742187-7.136719-15.863281 9.234375c-1.9375 1.078125-4.378906.492188-5.621094-1.34375-1.199219-1.875-.761719-4.355469 1.007812-5.707031l51.28125-37.015625-68.574218 39.617187c-1.9375 1.078125-4.378906.496094-5.621094-1.34375-1.183594-1.894531-.707031-4.378906 1.089844-5.707031l33.574218-23.835938-50.699218 29.125c-1.949219 1.175782-4.484375.578126-5.707032-1.34375-1.160156-1.917968-.648437-4.40625 1.175782-5.707031l35.085937-25.179687-63.371093 36.59375c-.953126.574218-2.097657.738281-3.171876.453125-1.078124-.285157-1.992187-.992188-2.535156-1.964844-1.15625-2.019531-.484375-4.589844 1.511719-5.789063l139.160156-80.242187c1.925781-1.167969 4.433594-.570313 5.625 1.34375 1.179688 1.894531.707031 4.378906-1.089843 5.707031l-35.085938 25.179688 55.480469-31.980469c1.9375-1.105469 4.402343-.5 5.609375 1.378906 1.207031 1.875.734375 4.367188-1.078125 5.671875l-33.570313 23.839844 53.042969-31.140625c1.929687-1.167969 4.433594-.570313 5.625 1.34375 1.1875 1.847656.75 4.300781-1.007813 5.621094l-51.367187 37.773437 77.640625-44.738281c1.949219-.976563 4.320312-.296875 5.460938 1.5625 1.136718 1.859375.660156 4.28125-1.097657 5.570313l-10.070312 7.050781 24.589843-14.183594c1.925782-1.167969 4.433594-.570313 5.625 1.34375 1.226563 1.886719.742188 4.402344-1.089843 5.707031l-69.582031 49.605469 98.203124-56.65625c1.917969-.917969 4.222657-.253906 5.359376 1.546875 1.136718 1.800781.746093 4.164062-.910157 5.503906l-53.046875 35.753906 74.195313-42.804687c1.929687-1.167969 4.433593-.570313 5.625 1.34375 1.273437 1.875.785156 4.429687-1.089844 5.707031l-63.539063 44.316406 89.054688-51.367187c1.933594-1.121094 4.40625-.53125 5.625 1.34375 1.207031 1.90625.6875 4.429687-1.175781 5.707031l-52.207031 35.417969 73.609374-42.46875c1.957032-1.128906 4.457032-.542969 5.707032 1.34375 1.191406 1.929687.632812 4.457031-1.257813 5.707031l-45.828125 30.804688 65.636719-37.855469c1.933594-1.121094 4.40625-.53125 5.621094 1.34375 1.210937 1.90625.691406 4.429687-1.171875 5.707031l-123.890625 85.445313c.003906 1.515625-.792969 2.917969-2.097657 3.691406l-19.640624 11.25c-1.925782 1.167969-4.433594.566406-5.621094-1.34375-1.210938-1.910156-.691406-4.433594 1.171875-5.707031l59.257812-40.878906-83.175781 48.011718c-1.957031 1.105469-4.433594.476563-5.625-1.425781-1.207031-1.910156-.6875-4.433594 1.175781-5.707031l45.828125-30.722656-65.554687 37.855468c-1.957031 1.128906-4.457031.542969-5.707031-1.34375-1.191407-1.929687-.632813-4.457031 1.257812-5.707031l52.125-35.417969-73.695312 42.554688c-1.953126 1.101562-4.433594.476562-5.621094-1.429688-1.164063-1.914062-.652344-4.40625 1.171875-5.707031l63.457031-44.316406-89.054688 51.453125c-1.972656 1.226562-4.5625.625-5.792968-1.34375-1.226563-1.972656-.625-4.5625 1.34375-5.792969l52.542968-35.671875-74.199218 42.808594c-.625.394531-1.355469.601562-2.097656.585937zm0 0" fill="#cad0d7"/><path d="m36.566406 403.351562c-1.414062-.050781-2.707031-.804687-3.441406-2.015624-1.144531-1.9375-.59375-4.429688 1.261719-5.707032l37.601562-25.179687-54.976562 31.980469c-1.972657 1.226562-4.5625.625-5.792969-1.34375-1.226562-1.972657-.625-4.5625 1.34375-5.792969l52.625-35.839844-54.890625 31.558594c-1.949219 1.152343-4.460937.515625-5.625-1.425781-1.207031-1.910157-.6875-4.429688 1.175781-5.707032l36.761719-25.179687-32.3125 18.96875c-1.9375 1.105469-4.402344.5-5.609375-1.375-1.207031-1.878907-.734375-4.371094 1.074219-5.675781l33.574219-23.835938-28.957032 16.785156c-1.9375 1.078125-4.378906.496094-5.621094-1.34375-1.199218-1.875-.761718-4.355468 1.003907-5.707031l23.417969-17.375-18.800782 10.914063c-1.855468 1.144531-4.277344.710937-5.621094-1.007813-1.257812-1.738281-.964843-4.152344.671876-5.539063l21.652343-18.886718-16.785156 9.734375c-1.832031 1.058593-4.160156.585937-5.441406-1.09375-1.277344-1.683594-1.105469-4.054688.40625-5.535157l8.894531-8.898437-3.859375 2.269531c-1.625.933594-3.675781.679688-5.019531-.628906-1.34375-1.304688-1.660156-3.34375-.773438-4.996094l3.441406-6.96875c-1.238281-.175781-2.324218-.921875-2.9375-2.011718-1.132812-2.019532-.417968-4.570313 1.59375-5.707032l9.738282-5.457031c1.625-.9375 3.671875-.679687 5.019531.625 1.34375 1.304687 1.660156 3.347656.769531 5l-2.769531 4.949219 18.300781-10.574219c1.808594-1.046875 4.113282-.597656 5.402344 1.050781 1.289062 1.644532 1.167969 3.988282-.285156 5.496094l-8.980469 8.980469 26.945313-15.527344c1.84375-1.089844 4.21875-.578125 5.453124 1.175781 1.246094 1.753906.996094 4.164063-.585937 5.621094l-21.738281 18.804688 44.398437-25.183594c1.925781-1.167969 4.433594-.566406 5.625 1.34375 1.1875 1.851562.75 4.304687-1.007812 5.625l-23.417969 16.953125 41.96875-24.339844c1.9375-1.105469 4.402344-.5 5.609375 1.375 1.207031 1.878906.734375 4.371094-1.078125 5.675781l-33.574219 23.753906 53.382813-30.804687c1.960937-1.128906 4.457031-.542969 5.707031 1.34375 1.191406 1.929687.636719 4.457031-1.257813 5.707031l-36.679687 25.179688 55.648437-32.0625c1.933594-1.121094 4.40625-.53125 5.625 1.34375 1.207032 1.90625.6875 4.429687-1.175781 5.707031l-52.710937 35.839844 74.367187-42.890625c1.972657-1.160156 4.511719-.527344 5.707031 1.425781 1.144532 1.9375.59375 4.433594-1.261718 5.707031l-37.601563 25.179688 55.480469-31.976563c1.949219-.976562 4.324219-.300781 5.460938 1.5625 1.136718 1.859375.664062 4.28125-1.09375 5.570313l-149.488282 95.769531c-.359375.453125-.78125.851563-1.257812 1.175781l-5.039063 2.855469c-1.949219.976563-4.320312.296875-5.460937-1.5625-1.136719-1.859375-.660156-4.28125 1.097656-5.574219l6.964844-4.617187-20.144532 11.753906c-.628906.386719-1.355468.589844-2.097656.585937zm0 0" fill="#cad0d7"/><path d="m349.222656 218.695312c-1.367187.023438-2.660156-.636718-3.441406-1.761718-1.226562-1.777344-.9375-4.1875.671875-5.625l26.523437-22.492188-35.335937 20.394532c-1.898437 1.042968-4.277344.503906-5.539063-1.257813-1.246093-1.789063-.917968-4.230469.753907-5.625l28.285156-23.835937-23.5 13.597656c-1.925781 1.050781-4.332031.511718-5.625-1.261719-1.175781-1.863281-.78125-4.308594.925781-5.707031l6.882813-5.203125-2.183594 1.257812c-1.800781 1-4.058594.578125-5.371094-1.007812-1.34375-1.570313-1.34375-3.882813 0-5.453125l16.785157-18.632813-11.332032 6.546875c-1.625.925782-3.664062.6875-5.035156-.589844-1.34375-1.289062-1.652344-3.320312-.753906-4.953124l4.113281-7.972657c-1.402344-.09375-2.660156-.882812-3.359375-2.097656-.574219-.953125-.734375-2.097656-.453125-3.171875.285156-1.078125.996094-1.992188 1.964844-2.535156l9.484375-5.457032c1.625-.925781 3.667968-.6875 5.035156.589844 1.347656 1.28125 1.6875 3.296875.839844 4.949219l-3.523438 6.714844 21.316406-12.253907c1.769532-1.09375 4.074219-.695312 5.375.925782 1.339844 1.570312 1.339844 3.882812 0 5.453125l-16.789062 18.632812 35.167969-20.308593c1.914062-1.070313 4.328125-.484376 5.539062 1.339843 1.253907 1.820313.84375 4.300781-.921875 5.625l-6.882812 5.289063 9.234375-5.289063c1.867187-1.074219 4.246093-.523437 5.453125 1.257813 1.265625 1.765625.976562 4.207031-.671875 5.625l-28.285157 23.753906 34.332032-19.808594c1.898437-1.042968 4.277344-.503906 5.539062 1.257813 1.246094 1.785156.917969 4.230469-.757812 5.625l-26.523438 22.492187 32.0625-18.714844c1.925782-1.300781 4.539063-.792968 5.835938 1.132813 1.296875 1.921875.789062 4.535156-1.132813 5.832031l-9.570312 7.722656 12.339843-7.132812c1.871094-1.101562 4.273438-.59375 5.539063 1.171875 1.296875 1.730469 1 4.171875-.671875 5.539063l-7.050781 6.214843 8.394531-4.703125c1.625-.925781 3.664062-.6875 5.035156.589844 1.335938 1.320312 1.671875 3.351562.839844 5.035156l-6.882812 13.34375 1.761718-1.003906c.953125-.574219 2.097656-.738281 3.175782-.453125 1.074218.285156 1.988281.992187 2.53125 1.960937 1.15625 2.019532.484374 4.59375-1.507813 5.792969l-14.101563 8.394531c-1.589843.96875-3.636718.726563-4.953124-.589843-1.34375-1.28125-1.6875-3.296875-.839844-4.953125l6.882812-13.34375-32.816406 18.550781c-1.875 1.101563-4.277344.589844-5.542969-1.175781-1.222656-1.777344-.9375-4.1875.671875-5.625l7.050782-6.125-22.492188 12.925781c-1.886719.980469-4.207031.398437-5.40625-1.355469s-.894531-4.128906.703125-5.527344l9.570313-7.722656-25.179688 14.605469c-.65625.402344-1.414062.609375-2.183594.585937zm0 0" fill="#66d4f1"/><path d="m212.914062 124.6875c-1.175781-.011719-2.292968-.496094-3.105468-1.339844-1.25-1.542968-1.25-3.75 0-5.289062l2.097656-2.9375-5.792969 3.273437c-1.738281 1.082031-4.015625.683594-5.285156-.921875-1.332031-1.546875-1.332031-3.832031 0-5.375l7.050781-8.390625-13.261718 7.71875c-1.8125 1.046875-4.117188.601563-5.40625-1.046875-1.289063-1.648437-1.167969-3.992187.285156-5.5l13.765625-14.519531-22.410157 12.675781c-1.863281.972656-4.160156.480469-5.457031-1.175781-1.253906-1.710937-1.039062-4.085937.503907-5.539063l21.65625-20.648437-31.476563 18.214844c-1.914063 1.066406-4.328125.480469-5.539063-1.34375-1.25-1.820313-.84375-4.300781.921876-5.625l13.597656-10.574219-79.402344 46.078125c-1.953125 1.105469-4.429688.476563-5.621094-1.425781-1.164062-1.917969-.652344-4.40625 1.171875-5.707032l53.636719-37.519531-50.363281 29.210938c-.964844.621093-2.140625.828125-3.257813.578125-1.121094-.253906-2.09375-.945313-2.699218-1.921875-1.175782-1.953125-.582032-4.484375 1.34375-5.707031l3.691406-2.6875c-2.027344.84375-4.367188-.019532-5.359375-1.980469-.992188-1.960938-.300781-4.355469 1.582031-5.488281l28.789062-19.304688-24.339843 14.015625c-1.910157 1.136719-4.378907.585937-5.625-1.257813-1.199219-1.875-.761719-4.355468 1.007812-5.707031l47.339844-36.09375-42.722656 24.675781c-1.945313 1.277344-4.558594.730469-5.832031-1.214843-1.277344-1.949219-.730469-4.558594 1.214843-5.835938l15.949219-11.664062-11.332031 6.546875c-1.851563 1.074218-4.214844.582031-5.484375-1.140625-1.269532-1.722657-1.042969-4.125.53125-5.574219l21.070312-19.304688-16.117187 9.230469c-1.835938 1.246094-4.320313.847657-5.675781-.90625-1.355469-1.757812-1.113282-4.261719.554687-5.722656l6.296875-6.378906-1.175781.671875c-1.386719.96875-3.230469.96875-4.617188 0-1.332031-1.023438-1.925781-2.738282-1.511719-4.367188l2.269532-8.390625c-.78125-.347656-1.429688-.9375-1.847656-1.679687-.574219-.953125-.738282-2.097656-.453126-3.175782.285157-1.074218.992188-1.988281 1.964844-2.53125l4.195313-2.433593c1.386719-.96875 3.230469-.96875 4.617187 0 1.425782.988281 2.039063 2.792969 1.511719 4.445312l-1.597656 6.210938 19.054687-10.992188c1.839844-1.03125 4.152344-.566406 5.457032 1.089844 1.378906 1.558594 1.378906 3.898437 0 5.457031l-6.214844 6.042969 22.582031-13.011719c1.832031-1.066406 4.171875-.597656 5.453125 1.09375 1.269531 1.734375 1.054688 4.140625-.503906 5.621094l-21.066406 19.304688 45.242187-26.101563c1.9375-1.105469 4.402344-.503906 5.609375 1.375 1.207031 1.875.730469 4.371094-1.078125 5.675781l-15.949219 11.664063 32.484375-18.800781c1.914063-1.066407 4.328125-.480469 5.539063 1.34375 1.261718 1.84375.855468 4.355468-.921875 5.707031l-47.339844 36.09375 74.785156-43.144531c1.949219-1.152344 4.460938-.515626 5.625 1.429687 1.164063 1.914063.648438 4.40625-1.175781 5.707031l-29.210938 19.21875 26.691407-15.359375c1.949219-.976562 4.324219-.296875 5.460937 1.5625 1.136719 1.859375.664063 4.28125-1.09375 5.570313l-3.695312 2.269531c1.839844-.664063 3.894531.03125 4.953125 1.675781 1.273437 1.878906.785156 4.433594-1.089844 5.707032l-53.636719 37.605468 49.101563-28.203125c1.914062-1.136719 4.378906-.585937 5.625 1.257813 1.21875 1.855468.816406 4.332031-.921875 5.707031l-13.683594 10.578125 8.980469-5.203125c1.832031-1.070313 4.175781-.601563 5.457031 1.089844 1.253906 1.726562 1.074219 4.101562-.421875 5.625l-21.652344 20.5625 16.785157-9.570313c1.785156-.933594 3.984374-.464844 5.234374 1.113282 1.25 1.582031 1.203126 3.828124-.113281 5.351562l-13.765625 14.519531 8.394532-4.949219c1.746093-1.046874 3.996093-.652343 5.285156.921876 1.296875 1.554687 1.296875 3.816406 0 5.371093l-7.132813 8.394531 1.761719-1.007812c1.710938-1.015625 3.902344-.660156 5.203125.839844 1.273437 1.5 1.273437 3.703125 0 5.203125l-3.105469 4.363281c1.371094.121094 2.59375.90625 3.273438 2.101562 1.15625 2.019532.484375 4.589844-1.507813 5.789063l-13.011719 7.472656c-.476562.335938-1.019531.566407-1.59375.667969zm0 0" fill="#ffd67b"/><path d="m111.351562 461.351562c-1.402343-.015624-2.714843-.703124-3.523437-1.847656-1.261719-1.84375-.855469-4.355468.921875-5.707031l16.789062-13.09375-28.035156 16.199219c-1.9375 1.105468-4.402344.5-5.609375-1.375-1.207031-1.878906-.734375-4.371094 1.078125-5.675782l14.101563-10.242187-20.3125 11.667969c-.941407.570312-2.074219.730468-3.136719.445312s-1.960938-.992187-2.488281-1.957031c-1.289063-1.855469-.839844-4.402344 1.007812-5.707031l30.71875-22.914063-36.59375 21.320313c-1.863281 1.214844-4.351562.734375-5.625-1.089844-1.207031-1.910156-.6875-4.433594 1.175781-5.707031l10.492188-7.21875-11.835938 6.796875c-1.949218 1.152344-4.460937.515625-5.625-1.425782-1.207031-1.910156-.6875-4.433593 1.175782-5.707031l7.136718-4.871093-6.464843 3.695312c-1.910157 1.136719-4.378907.585938-5.621094-1.257812-1.199219-1.875-.761719-4.359376 1.003906-5.710938l36.261719-27.445312-36.34375 20.730468c-1.933594 1.121094-4.40625.53125-5.625-1.339844-1.179688-1.898437-.703125-4.382812 1.09375-5.707031l20.8125-15.195312-17.371094 10.074219c-1.886718 1.128906-4.328125.574218-5.542968-1.257813-1.269532-1.800781-.898438-4.277344.839843-5.625l25.179688-20.230469-17.121094 9.988282c-1.855469 1.390624-4.484375 1.015624-5.875-.835938-1.390625-1.855469-1.015625-4.488281.839844-5.878906l15.863281-14.855469c-1.332031-.101563-2.527344-.855469-3.191406-2.011719-1.152344-2.023437-.480469-4.59375 1.511718-5.792968l26.859376-15.277344c1.832031-1.066406 4.175781-.597656 5.457031 1.09375 1.265625 1.734375 1.050781 4.140625-.503907 5.621094l-13.347656 12.421874 33.574219-19.722656c1.886719-1.128906 4.328125-.574218 5.539063 1.257813 1.269531 1.796875.902343 4.277343-.835938 5.625l-25.183594 20.226562 37.269532-21.488281c1.9375-1.105469 4.402343-.5 5.609374 1.378906 1.207032 1.875.730469 4.367188-1.078124 5.671875l-20.816407 15.195313 26.355469-15.195313c1.878906-1.171875 4.355469-.609375 5.539062 1.261719 1.261719 1.84375.855469 4.351562-.921874 5.707031l-36.34375 27.445313 41.378906-23.921875c1.972656-1.25 4.582031-.667969 5.835937 1.300781 1.25 1.972656.667969 4.582031-1.304687 5.835938l-7.132813 4.867187 7.386719-4.28125c1.921875-.917969 4.226562-.253906 5.359375 1.546875 1.136719 1.800781.746094 4.167969-.910156 5.503906l-10.410157 7.300782 9.652344-5.621094c1.941406-1.078125 4.382813-.496094 5.625 1.34375 1.199219 1.875.761719 4.355468-1.007812 5.707031l-30.804688 22.914063 28.539063-16.789063c1.933593-1.121094 4.40625-.53125 5.625 1.34375 1.179687 1.894531.703125 4.382813-1.09375 5.707031l-14.101563 10.15625 8.984375-5.121094c1.878907-1.171874 4.351563-.609374 5.539063 1.261719 1.269531 1.796875.898437 4.273438-.839844 5.621094l-16.789062 13.179687 7.554687-4.363281c1.875-1.109375 4.285156-.605469 5.550781 1.164063 1.269532 1.773437.972656 4.21875-.679687 5.632812l-12.089844 10.40625c.675781.40625 1.226563.988282 1.597656 1.679688 1.144531 1.996094.472657 4.542968-1.511719 5.707031l-26.691406 15.613281c-1.871094 1.101563-4.277344.589844-5.539062-1.175781-1.226563-1.777344-.9375-4.1875.671875-5.625l4.027343-3.441406-19.890624 11.5c-.535157.335937-1.136719.535156-1.765626.589843zm0 0" fill="#636c77"/><path d="m110.511719 427.1875c-1.214844-.007812-2.371094-.527344-3.1875-1.425781-1.296875-1.554688-1.296875-3.816407 0-5.371094l14.183593-17.542969-23.082031 13.347656c-1.898437 1.039063-4.277343.5-5.539062-1.261718-1.246094-1.785156-.917969-4.226563.757812-5.621094l2.011719-1.765625h-.503906c-1.707032 1.015625-3.898438.664063-5.203125-.839844-1.21875-1.550781-1.21875-3.734375 0-5.285156l9.484375-13.261719c-1.929688.785156-4.148438.035156-5.203125-1.761718-1.152344-2.023438-.484375-4.59375 1.511719-5.792969l16.28125-9.402344c1.71875-.980469 3.882812-.628906 5.203124.839844 1.21875 1.554687 1.21875 3.738281 0 5.289062l-9.398437 13.679688 23.417969-13.597657c1.871094-1.109374 4.28125-.601562 5.550781 1.167969 1.265625 1.769531.96875 4.214844-.683594 5.632813l-2.097656 1.761718 2.6875-1.511718c1.746094-1.042969 3.996094-.648438 5.285156.925781 1.285157 1.527344 1.285157 3.757813 0 5.285156l-14.101562 17.125 10.746093-6.210937c.953126-.574219 2.097657-.738282 3.171876-.453125 1.074218.285156 1.988281.992187 2.535156 1.964843 1.152344 2.019532.480468 4.589844-1.511719 5.789063l-30.214844 17.457031c-.617187.453125-1.339843.742188-2.101562.839844zm0 0" fill="#e4e8eb"/><path d="m381.203125 461.519531c-1.359375-.019531-2.632813-.671875-3.441406-1.765625-1.246094-1.785156-.917969-4.226562.753906-5.621094l25.179687-20.816406-39.449218 22.746094c-1.898438 1.042969-4.277344.5-5.539063-1.257812-1.195312-1.84375-.835937-4.289063.839844-5.707032l39.617187-32.234375-50.359374 29.210938c-1.957032 1.105469-4.433594.476562-5.625-1.425781-.605469-.890626-.832032-1.984376-.628907-3.039063.207031-1.058594.824219-1.988281 1.71875-2.585937l24.425781-17.625-27.53125 15.863281c-1.878906 1.175781-4.351562.613281-5.539062-1.261719-1.261719-1.84375-.855469-4.351562.925781-5.707031l41.964844-32.734375-45.15625 26.105468c-1.953125 1.105469-4.433594.476563-5.625-1.425781-1.179687-1.898437-.703125-4.382812 1.09375-5.710937l16.113281-11.246094-14.351562 8.394531c-1.886719.980469-4.207032.402344-5.40625-1.355469-1.199219-1.753906-.894532-4.128906.707031-5.527343l34.578125-27.277344-30.296875 17.539063c-1.898437 1.179687-4.386719.664062-5.660156-1.167969-1.273438-1.835938-.890625-4.34375.875-5.714844l20.144531-15.945313-11.25 6.546876c-1.875 1.367187-4.507812.953124-5.875-.921876-1.367188-1.878906-.953125-4.507812.925781-5.878906l13.34375-11.832031c-1.511719-.582031-2.550781-1.980469-2.675781-3.59375s.6875-3.152344 2.089844-3.960937l26.773437-15.277344c1.871094-1.101563 4.277344-.589844 5.539063 1.175781 1.300781 1.726563 1.003906 4.171875-.671875 5.539063l-7.550781 6.800781 25.179687-14.523438c1.886719-1.125 4.324219-.570312 5.539063 1.261719 1.226562 1.804688.859374 4.25-.839844 5.621094l-20.144532 15.863281 31.726563-18.210937c1.886719-1.128907 4.328125-.574219 5.539063 1.257812 1.226562 1.808594.863281 4.253906-.835938 5.625l-35.085938 27.109375 43.730469-25.179687c1.9375-1.105469 4.402344-.5 5.609375 1.375 1.207032 1.878906.734375 4.371093-1.078125 5.675781l-16.03125 11.332031 18.800781-10.914062c1.925782-1.296876 4.535157-.789063 5.832032 1.132812 1.300781 1.925781.792968 4.535156-1.132813 5.835938l-42.46875 32.734374 45.828125-26.441406c1.933594-1.121094 4.40625-.53125 5.625 1.34375 1.242188 1.867188.796875 4.378906-1.007812 5.707032l-24.511719 17.625 23.671875-13.679688c1.894531-1.175781 4.382812-.664062 5.65625 1.171875 1.277344 1.832031.890625 4.34375-.871094 5.710937l-39.703125 32.230469 35.757813-20.648437c1.910156-1.136719 4.378906-.582032 5.621094 1.261718 1.167968 1.804688.847656 4.1875-.753907 5.621094l-25.179687 20.816406 14.769531-8.394531c1.867187-1.144531 4.300781-.625 5.542969 1.175781 1.246094 1.785157.917968 4.230469-.757813 5.625l-11.164062 9.398438c1.199219.792969 1.917969 2.132812 1.917969 3.566406 0 1.4375-.71875 2.777344-1.917969 3.570313l-26.605469 15.023437c-1.871094 1.101563-4.273438.589844-5.539062-1.175781-1.246094-1.785156-.917969-4.230469.753906-5.625l.757812-.667969-15.445312 8.894532c-.53125.339843-1.136719.542968-1.761719.589843zm0 0" fill="#636c77"/><path d="m380.53125 427.523438c-1.714844.011718-3.265625-1.023438-3.914062-2.613282-.644532-1.589844-.261719-3.414062.976562-4.605468l5.707031-5.621094-11.917969 6.882812c-1.851562 1.074219-4.214843.582032-5.484374-1.140625-1.273438-1.722656-1.042969-4.125.53125-5.574219l8.394531-8.394531-10.492188 5.960938c-1.832031 1.066406-4.175781.597656-5.457031-1.09375-1.230469-1.746094-1.015625-4.125.503906-5.621094l6.800782-6.210937-3.527344 2.011718c-1.792969 1.035156-4.074219.609375-5.371094-1.007812-1.34375-1.570313-1.34375-3.882813 0-5.453125l6.460938-6.96875c-.78125-.34375-1.425782-.933594-1.84375-1.675781-1.15625-2.023438-.484376-4.59375 1.507812-5.792969l16.285156-9.402344c1.8125-1.042969 4.117188-.597656 5.402344 1.050781 1.289062 1.648438 1.167969 3.992188-.28125 5.496094l-2.265625 2.4375 12.167969-5.960938c1.851562-1.074218 4.214844-.585937 5.484375 1.136719 1.273437 1.722657 1.042969 4.125-.53125 5.578125l-6.714844 6.210938 10.070313-5.792969c1.851562-1.074219 4.214843-.582031 5.488281 1.140625 1.269531 1.722656 1.039062 4.125-.535157 5.574219l-8.394531 8.394531 8.394531-4.785156c1.808594-1.054688 4.121094-.585938 5.371094 1.09375 1.429688 1.566406 1.429688 3.96875 0 5.539062l-5.789062 5.621094c2.019531-1.152344 4.589844-.480469 5.789062 1.511719 1.09375 2.046875.394532 4.59375-1.59375 5.792969l-28.539062 16.785156c-.925782.175781-1.882813-.003906-2.683594-.503906zm0 0" fill="#e4e8eb"/></g><path d="m120.167969 371.203125c-15.277344-.675781-29.078125 9.054687-33.574219 23.671875-1.554688 7.816406.394531 15.921875 5.339844 22.171875 4.941406 6.25 12.378906 10.019531 20.34375 10.308594h1.089844c.441406.089843.898437.089843 1.34375 0h.585937c.921875.121093 1.851563.121093 2.769531 0 14.863282-.5625 27.367188-11.320313 30.132813-25.933594.773437-7.84375-1.855469-15.640625-7.214844-21.417969s-12.941406-8.980468-20.816406-8.800781zm0 50.363281c-9.433594-.574218-17.570313-6.820312-20.566407-15.78125-2.109374-5.222656-1.992187-11.078125.320313-16.214844 2.316406-5.132812 6.625-9.101562 11.933594-10.980468 25.683593-7.050782 34.332031 41.042968 7.976562 42.890625zm0 0" fill="#262626"/><path d="m386.910156 369.609375c-16.210937-.378906-30.152344 11.402344-32.484375 27.445313-.648437 8.203124 2.121094 16.304687 7.652344 22.394531 5.53125 6.085937 13.332031 9.617187 21.558594 9.753906h1.511719c16.761718-.125 30.628906-13.082031 31.894531-29.796875-.023438-7.953125-3.214844-15.570312-8.871094-21.164062s-13.308594-8.699219-21.261719-8.632813zm0 50.359375c-9.558594-.546875-17.566406-7.421875-19.558594-16.785156-1.398437-5.550782-.285156-11.4375 3.042969-16.09375 3.332031-4.65625 8.542969-7.613282 14.25-8.078125 24.257813-.503907 26.941407 38.859375 2.011719 40.789062zm0 0" fill="#262626"/><path d="m500.136719 304.308594c-3.777344-7.132813-13.261719-10.070313-24.425781-10.996094v-110.707031s0 0 0-.421875c.042968-.191406.042968-.394532 0-.585938-3.691407-18.71875-18.296876-29.210937-31.390626-41.96875-10.828124-10.742187-23.585937-29.039062-38.359374-35.085937-26.855469-10.992188-68.574219-3.105469-98.117188-2.433594v-47.421875c0-30.046875-8.394531-50.359375-41.96875-52.375-37.433594-1.847656-75.539062-.753906-113.058594 0h-37.015625c-25.179687-1.007812-54.976562-4.953125-77.804687 2.855469-31.898438 10.824219-27.699219 41.964843-27.699219 69.078125v152.339844c0 25.179687-3.609375 54.472656 16.28125 67.820312-10.996094.667969-20.816406 4.277344-24.675781 14.855469-3.859375 10.574219 0 29.964843 0 41.378906s-4.28125 31.476563 0 41.464844c7.21875 16.785156 33.574218 11.582031 50.359375 10.742187 1.511719 78.058594 119.859375 71.765625 129.007812 0h139.667969c2.097656 78.5625 120.53125 74.535156 129.089844.417969 16.789062 1.261719 41.296875 4.367187 49.605468-9.984375 10.996094-19.140625 1.175782-65.636719 1.175782-87.714844.035156-.511718-.226563-1-.671875-1.257812zm-111.210938-194.8125c18.464844 3.609375 31.558594 22.328125 44.0625 34.832031 12.507813 12.507813 26.859375 22.496094 30.46875 40.375v88.800781c-.714843 6.386719-.714843 12.835938 0 19.222656-9.820312 0-19.722656 1.257813-27.363281 1.847657h-107.265625c-1.09375 0-3.441406 0-6.296875.5h-14.773438c2.015626-3.105469 0-14.6875 0-19.136719v-153.515625c0-4.449219.421876-9.230469 0-13.679687 26.945313-3.761719 54.296876-3.503907 81.167969.753906zm-168.792969-95.347656c-1.050781 12.117187-1.050781 24.308593 0 36.425781 0 4.03125 0 67.148437-1.847656 67.820312-15.445312-9.820312-34.414062-27.363281-52.121094-31.476562-17.710937-4.113281-37.183593 15.695312-49.859374 23.503906-10.070313 6.292969-15.945313 14.9375-18.382813 0-.835937-11.402344-.835937-22.847656 0-34.246094v-68.40625h119.859375c.449219-.039062.898438-.039062 1.34375 0h.839844c.289062 2.113281.347656 4.253907.167968 6.378907zm-197.75 241.644531c-1.761718-39.195313 0-78.8125 0-118.011719 0-30.214844-6.96875-69.914062 0-99.375 7.386719-31.058594 35.921876-33.492188 63.539063-32.316406v72.769531c0 12.675781-6.96875 44.824219 12.085937 45.578125 20.730469.839844 37.183594-25.179688 55.816407-30.804688 1.511719-.261718 2.964843-.800781 4.28125-1.59375 0 0 0 .839844 2.769531 1.761719 5.308594 2.773438 10.316406 6.09375 14.941406 9.90625l31.472656 19.554688c.191407.058593.398438.058593.589844 0 25.179688 5.035156 23.835938-14.773438 23.835938-33.574219v-82.171875h13.429687c18.96875 0 40.121094 0 48.261719 21.992187 2.265625 10.046876 2.863281 20.394532 1.761719 30.636719v235.015625h-233.167969c-21.234375-2.015625-38.273438-9.90625-39.617188-39.367187zm76.128907 195.148437c-20.550781-9.507812-33.808594-29.984375-34.078125-52.625 3.441406-36.007812 52.039062-73.445312 88.382812-37.9375.921875.835938 1.679688 1.84375 2.519532 2.769532 6.507812 7.875 10.953124 17.25 12.925781 27.277343 0 1.34375.503906 2.6875.671875 4.027344.167968 1.34375.667968 4.367187.835937 6.546875-1.929687 35.757812-33.992187 66.730469-71.257812 49.941406zm278.15625 2.265625c-25.523438-5.929687-43.515625-28.773437-43.308594-54.976562 0-.921875 0-1.84375 0-2.769531 5.625-35.082032 52.460937-69.582032 87.878906-35.082032 8.09375 8.472656 13.546875 19.117188 15.695313 30.632813 0 1.175781 0 2.433593.589844 3.695312.585937 1.257813.585937 4.027344.753906 6.125-2.265625 31.058594-27.445313 59.847657-61.609375 52.375zm110.292969-57.15625c-2.519532 2.265625-29.378907 1.675781-36.597657 0-.671875-10.765625-4.109375-21.175781-9.988281-30.21875-.332031-.824219-.753906-1.613281-1.257812-2.347656-6.996094-10.035156-16.851563-17.726563-28.285157-22.078125-17.75-6.402344-37.347656-5.25-54.222656 3.191406-21.542969 9.121094-35.621094 30.15625-35.839844 53.550782-14.4375 2.265624-47.171875-2.097657-54.640625-2.097657-23.082031 0-51.957031 4.78125-74.449218 0-2.234376-.1875-4.480469-.1875-6.714844 0-1.117188-3.171875-2.523438-6.234375-4.199219-9.152343l-.839844-1.675782c-1.9375-8.878906-5.964843-17.164062-11.75-24.175781-4.03125-6.238281-9.5-11.417969-15.945312-15.105469-29.460938-17.710937-89.390625-6.714844-96.527344 33.574219-1.878906 5.414063-3.007813 11.0625-3.355469 16.785156-2.351562 0-6.210937 0-12.84375 0-10.910156 0-19.386718 2.6875-25.683594-7.722656-7.21875-12.253906 0-53.800781 0-68.152344 0-16.789062-2.683593-14.4375 9.234376-18.132812 6.019531-1.589844 12.25-2.210938 18.464843-1.84375l4.28125.839843c30.925781 2.816407 62.03125 3.066407 93 .753907h158.71875c.601563.292969 1.261719.464843 1.929688.503906h167.871093c2.289063-.058594 4.535157-.664063 6.546876-1.761719 7.550781 1.425782 13.09375 3.859375 14.855468 7.886719v62.195313c0 4.28125 2.433594 21.320312-1.761718 25.183593zm0 0" fill="#262626"/><path d="m329.246094 207.953125c5.289062 19.890625 50.863281 11.164063 65.554687 11.164063 21.90625 0 48.007813 6.210937 47.335938-23.082032.316406-8.4375-3.464844-16.503906-10.152344-21.65625-10.914063-10.828125-21.40625-22.328125-32.734375-32.652344-4.984375-4.894531-11.835938-7.402343-18.804688-6.882812-12.582031-1.300781-25.269531-1.300781-37.851562 0-13.851562 2.855469-13.429688 13.765625-13.429688 25.183594v46.414062c-.148437.5-.117187 1.03125.082032 1.511719zm17.710937-64.378906c12.253907-2.351563 24.84375-2.351563 37.097657 0 8.980468 3.527343 18.800781 18.214843 25.179687 24.761719 6.382813 6.546874 18.550781 14.855468 20.398437 25.179687 2.183594 13.007813 0 16.785156-12.003906 16.785156h-43.058594c-8.390624 0-30.214843 4.535157-33.574218-5.539062v-34.246094c.421875-9.316406-3.1875-23.667969 5.960937-26.941406zm0 0" fill="#262626"/><path d="m162.972656 254.117188h-100.722656c-2.683594 0-13.847656 5.117187-7.886719 5.117187h100.71875c2.6875 0 13.851563-5.117187 7.890625-5.117187zm0 0" fill="#262626" fill-rule="evenodd"/><path d="m63.761719 197.292969 5.289062-5.203125v32.648437c0 1.511719 12.085938 0 12.085938-3.273437v-26.269532l5.035156 5.035157c2.855469 2.769531 14.269531-1.679688 11.414063-4.617188-5.621094-5.625-11.246094-11.164062-16.785157-16.785156-2.519531-2.433594-11.667969.753906-11.835937 3.523437l-16.113282 16.117188c-2.265624 2.265625 8.894532.839844 10.910157-1.175781zm0 0" fill="#262626" fill-rule="evenodd"/><path d="m130.488281 199.476562 5.625-5.625v29.796876c0 6.042968 12.253907 3.945312 12.253907-1.089844v-27.027344l5.121093 5.117188c2.289063 2.113281 5.671875 2.519531 8.394531 1.007812 1.84375-.921875 5.035157-4.195312 2.769532-6.460938-5.539063-5.625-11.164063-11.164062-16.789063-16.789062-.292969-.277344-.632812-.507812-1.007812-.671875-2.164063-1.210937-4.800781-1.210937-6.964844 0-1.230469.683594-2.269531 1.664063-3.023437 2.855469l-16.449219 15.78125c-5.289063 5.285156 6.546875 6.628906 10.070312 3.105468zm0 0" fill="#262626" fill-rule="evenodd"/></svg>