<svg height="507pt" viewBox="0 -2 507.52986 507" width="507pt" xmlns="http://www.w3.org/2000/svg"><path d="m70.277344 501.546875c-1.476563.011719-2.847656-.769531-3.585938-2.050781-1.210937-1.960938-.644531-4.53125 1.28125-5.800782l52.054688-34.132812-71.765625 41.386719c-2.007813 1.179687-4.589844.535156-5.804688-1.453125-1.164062-1.96875-.605469-4.503906 1.28125-5.800782l89.429688-59.734374-109.824219 63.574218c-1.980469 1.171875-4.535156.523438-5.71875-1.449218-1.210938-1.964844-.644531-4.535157 1.28125-5.804688l109.652344-72.703125-116.648438 67.414063c-2.035156 1.117187-4.589844.441406-5.804687-1.535157-.582031-.972656-.75-2.136719-.460938-3.226562.289063-1.09375 1.011719-2.023438 1.996094-2.578125l32.171875-20.136719-29.695312 17.066406c-2.027344 1.222657-4.664063.574219-5.890626-1.453125-1.222656-2.027344-.574218-4.660156 1.453126-5.886718l92.84375-59.734376-88.40625 51.199219c-2.011719 1.132813-4.5625.496094-5.804688-1.449219-1.195312-1.984374-.589844-4.558593 1.367188-5.800781l109.054687-71.339843-104.703125 60.246093c-1.980469.992188-4.394531.300781-5.550781-1.589843-1.15625-1.890626-.671875-4.351563 1.113281-5.664063l82.433594-52.820313-77.996094 45.054688c-2.027344 1.226562-4.664062.574219-5.886719-1.453125-1.226562-2.023437-.578125-4.660156 1.449219-5.886719l75.179688-47.957031-70.742188 40.875c-1.980469.992187-4.394531.304687-5.550781-1.585937-1.15625-1.894532-.671875-4.355469 1.113281-5.667969l102.398438-66.558594-97.960938 56.40625c-1.828125.554687-3.804688-.167969-4.835938-1.777344s-.871093-3.707031.398438-5.136719l78.25-51.199218-73.8125 42.667968c-2.003906 1.246094-4.640625.636719-5.886719-1.367187-1.25-2.003906-.640625-4.640625 1.363281-5.886719l93.867188-63.402344-89.34375 52.136719c-1.964844 1.140625-4.480469.539063-5.71875-1.363281-1.21875-1.914062-.6875-4.453125 1.195312-5.71875l76.800782-52.734375-72.277344 41.554687c-2.007812 1.179688-4.589844.535157-5.804688-1.449218-1.164062-1.96875-.605468-4.507813 1.28125-5.804688l34.132813-22.441406-29.183594 17.066406c-1.035156.65625-2.300781.835938-3.476562.492188s-2.144531-1.175782-2.667969-2.285156c-1.21875-1.90625-.773438-4.425782 1.023438-5.800782l53.503906-39.511718-48.808594 28.246093c-1.945312 1.15625-4.453125.59375-5.71875-1.277343-1.21875-1.90625-.773438-4.429688 1.023438-5.804688l25.601562-19.027344-20.90625 11.945313c-1.972656 1.09375-4.453125.503906-5.71875-1.367188-1.21875-1.90625-.773438-4.425781 1.023438-5.800781l8.535156-5.972656-3.414063 1.960937c-1.882812 1.09375-4.285156.59375-5.574219-1.15625-1.292968-1.75-1.058593-4.195312.539063-5.667969l13.910156-12.714843-8.53125 4.949219c-1.824219 1.050781-4.144531.617187-5.464843-1.023438-1.328126-1.609375-1.328126-3.9375 0-5.546875l6.828124-7.425781c-.839843-.355469-1.53125-.988282-1.960937-1.792969-1.167969-2.027344-.480469-4.617187 1.535156-5.800781l16.46875-9.472656c1.710938-.882813 3.804688-.457032 5.035157 1.023437 1.402343 1.582031 1.402343 3.964844 0 5.546875l-2.902344 3.15625 17.835937-10.410156c1.890625-1.09375 4.296875-.621094 5.632813 1.109375 1.265625 1.785156 1.007812 4.234375-.597656 5.71875l-13.824219 12.714843 34.132812-19.542968c1.957031-1.1875 4.507813-.578125 5.71875 1.367187 1.207031 1.878907.761719 4.371094-1.027343 5.714844l-8.53125 5.976563 23.296874-13.058594c1.941407-1.039063 4.355469-.433594 5.570313 1.402344 1.21875 1.839843.835937 4.300781-.878906 5.679687l-25.601563 19.03125 45.3125-26.113281c1.945313-1.15625 4.453125-.59375 5.71875 1.28125 1.261719 1.898437.8125 4.453125-1.023437 5.800781l-53.761719 39.765625 81.152344-46.847656c1.980468-1.171875 4.535156-.523438 5.71875 1.453125 1.210937 1.960937.644531 4.53125-1.28125 5.800781l-34.132813 22.441406 51.199219-29.695312c1.964844-1.140625 4.480469-.539063 5.71875 1.367187 1.226562 1.941407.699219 4.503907-1.195312 5.800781l-76.800782 52.652344 103.765625-59.734375c1.964844-1.140625 4.480469-.539062 5.71875 1.367188 1.226563 1.9375.699219 4.503906-1.195312 5.800781l-93.867188 63.402344 117.332031-67.242188c1.984376-.992187 4.394532-.304687 5.554688 1.585938 1.15625 1.894531.671875 4.355468-1.117188 5.667968l-78.25 50.429688 83.628907-48.210938c1.980469-.992187 4.394531-.304687 5.550781 1.585938s.671875 4.355469-1.113281 5.667969l-102.402344 66.558593 101.632813-58.710937c2.035156-1.117187 4.585937-.441406 5.800781 1.539063 1.199219 1.984374.589843 4.558593-1.363281 5.800781l-75.09375 47.871093 70.65625-40.789062c1.980468-.992188 4.394531-.300781 5.550781 1.589844s.671875 4.351562-1.113281 5.664062l-82.433594 52.820313 77.996094-45.054688c2.011718-1.132812 4.558593-.496093 5.800781 1.449219 1.199219 1.984375.589843 4.5625-1.363281 5.804688l-108.800782 71.082031 104.621094-60.414063c1.980469-.996094 4.394531-.304687 5.550781 1.585938s.671875 4.355468-1.117187 5.664062l-92.839844 59.734375 88.40625-51.199219c.96875-.582031 2.132812-.75 3.222656-.460937 1.09375.289063 2.023438 1.011719 2.578125 1.996094 1.195313 1.984375.589844 4.5625-1.367187 5.804687l-32.339844 20.136719 27.90625-16.042969c1.976562-1.171875 4.535156-.523437 5.714844 1.453125 1.230468 1.9375.699218 4.503907-1.195313 5.800781l-109.738281 72.789063 105.21875-60.757813c2.003906-1.179687 4.585938-.535156 5.800781 1.453126 1.164063 1.96875.605469 4.503906-1.28125 5.800781l-89.429687 59.734375 85.335937-49.066406c2.003907-1.25 4.636719-.636719 5.886719 1.363281 1.25 2.003906.636719 4.640625-1.363281 5.890625l-52.054688 34.132812 47.53125-27.476562c1.980469-.996094 4.394531-.304688 5.550781 1.585937s.671876 4.355469-1.113281 5.667969l-24.746093 16.210938 19.882812-11.605469c1.292969-.808594 2.921875-.863281 4.269531-.144531 1.347657.71875 2.210938 2.101562 2.261719 3.625.050781 1.527343-.714844 2.964843-2.011719 3.773437l-15.785156 10.410156 11.265625-6.484375c2.003906-1.179687 4.585938-.535156 5.800781 1.449219 1.164063 1.972656.605469 4.507813-1.28125 5.804687l-8.105469 5.375 3.585938-2.132812c1.96875-1.09375 4.453125-.503906 5.714844 1.363281 1.226562 1.859375.820312 4.351563-.9375 5.71875l-38.996094 30.378907 34.132812-19.710938c1.863282-1.085938 4.242188-.609375 5.546876 1.109375 1.285156 1.761719 1.066406 4.207031-.511719 5.714844l-26.625 24.492187 21.589843-12.457031c1.78125-1.027344 4.042969-.632813 5.375.9375 1.351563 1.566406 1.351563 3.890625 0 5.460937l-10.921874 13.226563 2.046874-1.195313c.96875-.582031 2.132813-.75 3.226563-.460937 1.09375.292969 2.023437 1.011719 2.578125 1.996094 1.171875 2.054687.488281 4.671875-1.539062 5.890625l-22.78125 13.140625c-1.769532 1.101562-4.085938.695312-5.378907-.9375-1.316406-1.582031-1.316406-3.882813 0-5.464844l11.007813-13.226563-34.132813 19.628907c-1.863281 1.085937-4.242187.609375-5.546875-1.109375-1.25-1.773438-1.03125-4.195313.511719-5.71875l26.625-24.488282-53.929687 31.316407c-1.933594 1.296875-4.550782.78125-5.847657-1.152344-1.292969-1.933594-.777343-4.550781 1.152344-5.84375l38.828125-30.550781-65.023438 37.546875c-1.296874.808593-2.925781.863281-4.273437.144531s-2.207031-2.101562-2.261719-3.625c-.050781-1.527344.714844-2.964844 2.011719-3.773438l8.535156-5.375-22.359375 12.628907c-1.980468.992187-4.394531.304687-5.550781-1.589844-1.15625-1.890625-.671875-4.351563 1.113281-5.664063l15.703125-10.324218-30.292969 17.578125c-1.980468 1.171875-4.535156.523437-5.71875-1.453125-1.210937-1.960938-.644531-4.53125 1.28125-5.800782l24.832032-16.214843-40.960938 23.46875c-.632812.414062-1.378906.621093-2.132812.597656zm0 0" fill="#fab153" fill-rule="evenodd"/><path d="m152.707031 351.785156c-1.152343-.003906-2.257812-.460937-3.070312-1.277344-1.382813-1.355468-1.632813-3.488281-.597657-5.121093l8.535157-14.933594-17.070313 9.640625c-1.855468 1.128906-4.265625.644531-5.542968-1.109375-1.300782-1.714844-1.117188-4.128906.425781-5.628906l6.65625-6.488281-11.863281 6.828124c-1.316407.957032-3.0625 1.082032-4.503907.320313-1.441406-.761719-2.320312-2.277344-2.269531-3.902344.050781-1.628906 1.023438-3.085937 2.507812-3.757812l41.128907-23.722657c1.859375-1.125 4.269531-.644531 5.546875 1.109376 1.300781 1.71875 1.117187 4.132812-.425782 5.632812l-6.65625 6.484375 1.535157-.851563c1.667969-.925781 3.746093-.636718 5.09375.710938 1.347656 1.347656 1.636719 3.425781.710937 5.089844l-8.535156 14.933594 2.988281-1.707032c1.992188-.898437 4.34375-.148437 5.445313 1.746094 1.101562 1.890625.589844 4.308594-1.179688 5.59375l-17.066406 9.8125c-.539062.339844-1.15625.542969-1.792969.597656zm0 0" fill="#ffd67b" fill-rule="evenodd"/><path d="m85.890625 352.46875c-1.425781-.011719-2.757813-.710938-3.582031-1.878906-1.21875-1.90625-.773438-4.425782 1.023437-5.800782l27.820313-20.992187-24.320313 14.078125c-1.917969 1.148438-4.398437.585938-5.632812-1.277344-1.257813-1.867187-.886719-4.378906.851562-5.804687l37.292969-29.523438-32.511719 18.773438c-1.925781 1.101562-4.375.542969-5.632812-1.28125-1.292969-1.828125-.914063-4.347657.851562-5.71875l40.109375-31.914063-35.328125 20.140625c-1.960937 1.1875-4.507812.578125-5.71875-1.367187-1.207031-1.878906-.761719-4.371094 1.023438-5.714844l14.167969-9.984375-9.472657 5.460937c-1.929687 1.195313-4.457031.671876-5.753906-1.191406-1.296875-1.863281-.90625-4.414062.890625-5.808594l12.882812-10.496093-8.019531 4.695312c-1.746093.996094-3.949219.640625-5.292969-.851562-1.238281-1.578125-1.238281-3.800781 0-5.378907l10.839844-15.1875-5.207031 3.070313c-1.558594.84375-3.472656.675781-4.863281-.425781-1.363282-1.144532-1.875-3.015625-1.28125-4.691406l1.707031-5.292969c-.558594-.375-1.027344-.871094-1.363281-1.449219-.585938-.96875-.75-2.132812-.460938-3.226562.289063-1.09375 1.007813-2.023438 1.996094-2.578126l4.265625-2.472656c1.464844-1.015625 3.402344-1.015625 4.863281 0 1.355469 1.148438 1.890625 2.996094 1.367188 4.691406l-.769532 2.050782 12.460938-7.167969c1.738281-1.035156 3.964844-.675781 5.289062.851563 1.226563 1.550781 1.226563 3.738281 0 5.289062l-10.835937 15.191406 37.117187-21.417968c1.945313-1.15625 4.453126-.597657 5.71875 1.277343 1.207032 1.847657.839844 4.304688-.851562 5.71875l-12.886719 10.496094 30.464844-17.578125c1.96875-1.125 4.476563-.511719 5.703125 1.398438 1.226562 1.90625.746094 4.441406-1.097656 5.769531l-13.992188 10.324219 17.664063-10.238282c1.917969-1.148437 4.398437-.585937 5.632812 1.277344 1.289063 1.828125.914063 4.347656-.855469 5.71875l-40.105468 32.171875 35.328125-20.3125c1.910156-1.191406 4.425781-.621094 5.632812 1.28125 1.289063 1.828125.914063 4.347656-.855469 5.71875l-37.289062 29.269531 32.511719-18.773437c1.941406-1.15625 4.449219-.59375 5.714843 1.277343 1.21875 1.90625.777344 4.429688-1.023437 5.804688l-27.902344 20.820312 23.210938-13.398437c.96875-.582031 2.132812-.746094 3.226562-.457031 1.09375.289062 2.023438 1.007812 2.574219 1.996094 1.175781 2.054687.492188 4.667968-1.535156 5.886718l-83.625 48.296875c-.632813.453125-1.367188.746094-2.136719.855469zm0 0" fill="#ffd67b" fill-rule="evenodd"/><g fill="#262626"><path d="m18.820312 498.304688c23.722657 10.578124 64.511719 2.21875 89.257813 2.21875 39.167969 0 141.140625 22.101562 145.066406-37.292969 2.390625-39.933594 0-80.722657 0-120.746094 0-23.808594 9.386719-70.398437-5.117187-91.648437-14.507813-21.246094-63.746094-13.566407-88.492188-12.371094h-121.941406c-1.097656-.246094-2.230469-.246094-3.328125 0-27.820313 5.886718-32.769531 22.183594-32.769531 48.042968v134.226563c0 22.613281-9.042969 65.878906 17.324218 77.570313zm145.066407-197.546876c0 3.070313 0 46.335938-2.558594 46.933594-9.472656-7.765625-21.503906-22.273437-34.644531-20.480468-6.914063 1.789062-13.183594 5.484374-18.09375 10.664062-7.082032 5.71875-14.933594 17.066406-17.75 3.414062-3.15625-16.128906 0-35.925781 0-52.394531v-44.289062h37.976562 29.609375 5.375c-.0625.484375-.0625.972656 0 1.453125-.9375 18.089844-.167969 36.4375-.167969 54.699218zm-132.011719-56.234374h46.421875v47.699218c0 15.703125-4.09375 37.804688 0 53.078125 4.097656 15.273438 19.628906 9.472657 29.183594 2.472657 4.261719-3.890626 8.765625-7.511719 13.484375-10.835938 5.972656-3.242188 2.304687-3.15625 7.765625-1.28125 7.082031 2.304688 15.53125 12.460938 21.417969 17.066406h.425781c26.113281 10.753906 25.003906-17.492187 25.003906-34.132812v-74.066406h24.488281c10.667969 0 24.40625-1.707032 32.855469 6.738281 8.449219 8.449219 6.484375 21.847656 7.167969 32.683593 1.960937 34.132813 0 69.71875 0 104.277344 0 24.832032 5.886718 58.199219 0 82.433594-8.535156 34.132812-48.042969 23.890625-74.410156 23.890625h-103.59375c-27.480469 0-45.742188-3.839844-48.300782-34.984375-2.902344-35.753906 0-72.875 0-108.714844 0-19.113281-12.371094-99.414062 18.089844-106.324218zm0 0"/><path d="m218.585938 462.632812v-17.066406c0-5.203125-12.289063-2.558594-12.289063 1.535156v17.066407c0 5.207031 12.289063 2.5625 12.289063-1.535157zm0 0" fill-rule="evenodd"/><path d="m184.453125 461.78125v-17.066406c0-3.585938-12.289063-1.367188-12.289063 3.242187v17.066407c0 3.582031 12.289063 1.363281 12.289063-3.242188zm0 0" fill-rule="evenodd"/><path d="m41.175781 467.667969h34.136719c6.824219 0 9.640625-8.53125 1.191406-8.53125h-34.132812c-6.824219 0-9.640625 8.53125-1.195313 8.53125zm0 0" fill-rule="evenodd"/><path d="m46.722656 407.679688c1.957032.59375 4.066406.410156 5.890625-.511719v22.613281c0 6.230469 12.457031 4.179688 12.457031-1.023438v-22.359374c4.097657-.597657 9.644532-3.328126 8.105469-4.863282l-8.53125-8.535156c-1.535156-3.839844-8.535156-1.960938-11.09375.429688l-8.53125 8.53125c-1.964843 2.132812-.769531 4.695312 1.703125 5.71875zm0 0" fill-rule="evenodd"/><path d="m488.066406 443.519531c34.136719-21.503906 16.042969-55.894531.941406-82.347656-20.027343-35.101563-39.9375-70.171875-59.734374-105.214844-2.644532-4.523437-14.507813 0-11.433594 5.289063l43.261718 75.691406c15.105469 26.367188 67.242188 91.136719 1.28125 105.132812-29.523437 6.226563-67.070312 0-97.195312 0h-75.09375v-.515624l8.535156-8.53125 12.800782-12.800782c2.472656-2.390625-9.046876-1.023437-11.09375 1.023438l-21.078126 21.078125c-2.488281.304687-4.433593 2.285156-4.695312 4.777343 0 0-.59375.769532 0 1.28125l25.601562 25.601563c2.132813 2.21875 13.398438-2.390625 11.605469-4.097656l-12.03125-12.117188-7.167969-7.167969h99.839844c27.390625 0 70.996094 8.277344 95.65625-7.082031zm0 0" fill-rule="evenodd"/><path d="m122.328125 206.292969 52.992187-92.757813c12.746094-22.1875 25.402344-44.375 37.976563-66.558594 14.335937-25.003906 8.53125-26.625 41.726563-24.917968 33.195312 1.707031 27.476562 2.644531 41.8125 27.734375l35.839843 62.804687 49.835938 87.292969-18.089844-5.542969c-2.902344-.941406-13.910156 3.753906-10.15625 4.863282l34.558594 10.582031h1.28125c3.15625 0 8.535156-1.195313 9.214843-3.5 3.5-11.605469 7.085938-23.125 10.582032-34.644531.769531-2.648438-11.179688-1.109376-12.203125 2.132812-1.960938 6.230469-3.839844 12.542969-5.800781 18.859375l-64-112.128906c-17.066407-29.695313-34.902344-85.332031-77.910157-79.871094-36.179687 4.949219-51.199219 51.964844-67.15625 79.1875l-72.789062 128.683594c-.769531 1.535156 10.578125.9375 12.285156-2.21875zm0 0" fill-rule="evenodd"/></g></svg>